<svg xmlns="http://www.w3.org/2000/svg" width="43" height="14" fill="none"><path fill="#4D5AE5" d="M5.706.756H8.01l1.458 4.23 1.476-4.23h2.286L11.034 6.57l1.62 4.068L16.272.72h2.7L13.86 13.5h-2.142l-2.25-5.364L7.236 13.5H5.094L0 .72h2.664L6.3 10.638 7.884 6.57 5.706.756Zm23.99 10.566V13.5H20.82V.72h8.712v2.178h-6.228v3.078h5.382v2.016h-5.382v3.33h6.39Zm12.772-1.116c0 .72-.186 1.326-.558 1.818-.372.48-.876.846-1.512 1.098a5.43 5.43 0 0 1-2.052.378h-6.174V.72h6.84c.6 0 1.116.162 1.548.486.444.312.78.72 1.008 1.224a3.496 3.496 0 0 1-.108 3.294c-.312.552-.768.96-1.368 1.224.732.216 1.308.606 1.728 1.17.432.564.648 1.26.648 2.088Zm-2.502-.468c0-.324-.066-.612-.198-.864a1.494 1.494 0 0 0-.54-.612 1.257 1.257 0 0 0-.756-.234h-3.816v3.366h3.69c.3 0 .57-.072.81-.216.252-.156.45-.36.594-.612a1.64 1.64 0 0 0 .216-.828Zm-5.31-6.894v3.222h3.312c.276 0 .528-.066.756-.198.228-.132.408-.318.54-.558.144-.24.216-.528.216-.864 0-.324-.066-.606-.198-.846a1.339 1.339 0 0 0-.504-.558 1.264 1.264 0 0 0-.702-.198h-3.42Z"/></svg>